<svg id="Group_15092" data-name="Group 15092" xmlns="http://www.w3.org/2000/svg" width="51.027" height="42.938" viewBox="0 0 51.027 42.938">
  <path id="Path_50051" data-name="Path 50051" d="M81.376,431.072c-4.7,1.438-3.653,6.047-2.5,9.679-1.859-3.378-6.256-10.042-10.641-8.414-6.3,2.339.381,8.189,2.377,11.091-3.15-2.083-13.846-2.081-10.649,4.425,1.829,3.723,10.05,6.869,13.819,6.937-6.334.179-4.83,6.3-.019,7.835a32.235,32.235,0,0,0,11.085,1.23c-3.39.9-3.982,5.638-1.9,8.226,1.866,2.324,4.963,1.856,7.564.874,3.671-1.385,6.807-4.162,10.373-5.562a15.689,15.689,0,0,1,3.113-.68l-.375.119.464-.135a6.907,6.907,0,0,0,2.506-.81l-.388.123c2.339-.9,3.911-2.216,4.179-5.713.29-3.787-2.467-7.477-4.179-10.673-1.876-3.506-3.465-7.537-5.73-10.821-2.777-4.027-9.575-4.756-9.522,1.44C89.9,436.126,86.655,429.457,81.376,431.072Z" transform="translate(-59.375 -430.825)" fill="#0455bf"/>
  <path id="Path_50052" data-name="Path 50052" d="M76.279,450.449a.885.885,0,0,0-.371-.45c-3.206-2.024-4.791-5.747-7.57-8.243-.857-.77-2.1.515-1.246,1.287a49.261,49.261,0,0,1,4.606,5.446c-2.206-.911-4.421-1.809-6.611-2.788-1.046-.468-1.931,1.091-.878,1.561,6.491,2.9,12.871,5.554,19.132,8.911a37.994,37.994,0,0,1-4.07.17A42.033,42.033,0,0,1,74,456.4c-1.149-.088-1.112,1.7.03,1.791a46.807,46.807,0,0,0,6.708-.144c1.189-.083,3.5.037,4.617-.779a76.843,76.843,0,0,0,7.136,3.693c-2.514.867-4.855,2.349-7.4,3.123a.9.9,0,0,0,.5,1.719c3.392-1.03,6.479-3.483,10.075-3.7a15.246,15.246,0,0,0,3.519.6c1.153.044,1.119-1.747-.03-1.791a12.684,12.684,0,0,1-1.833-.221.865.865,0,0,0,0-.21c-.426-2.289-1.573-4.227-2.453-6.355-1.033-2.5-1.763-5.132-2.707-7.667-.4-1.073-2.123-.579-1.719.505.945,2.537,1.687,5.159,2.707,7.667a46.317,46.317,0,0,1,2.279,5.591,44,44,0,0,1-8.908-4.236.821.821,0,0,0-.027-.251c-1.427-4.475-4.405-8.185-6.344-12.425-.478-1.046-2.006-.109-1.531.93,1.628,3.561,4.036,6.738,5.543,10.347-.755-.451-1.482-.883-2.163-1.272C80.134,452.248,78.219,451.319,76.279,450.449Z" transform="translate(-53.364 -430.825)" fill="#35343d"/>
</svg>
