<svg xmlns="http://www.w3.org/2000/svg" width="51.027" height="42.938" viewBox="0 0 51.027 42.938">
  <g id="Group_15091" data-name="Group 15091" transform="translate(-59.375 -430.825)">
    <path id="Path_50051" data-name="Path 50051" d="M88.4,431.072c4.7,1.438,3.653,6.047,2.5,9.679,1.859-3.378,6.256-10.042,10.641-8.414,6.3,2.339-.381,8.189-2.377,11.091,3.15-2.083,13.846-2.081,10.649,4.425-1.829,3.723-10.05,6.869-13.819,6.937,6.334.179,4.83,6.3.019,7.835a32.235,32.235,0,0,1-11.085,1.23c3.39.9,3.982,5.638,1.9,8.226-1.866,2.324-4.963,1.856-7.564.874-3.671-1.385-6.807-4.162-10.373-5.562a15.689,15.689,0,0,0-3.113-.68l.375.119-.464-.135a6.907,6.907,0,0,1-2.506-.81l.388.123c-2.339-.9-3.911-2.216-4.179-5.713-.29-3.787,2.467-7.477,4.179-10.673,1.876-3.506,3.465-7.537,5.73-10.821,2.777-4.027,9.575-4.756,9.522,1.44C79.874,436.126,83.122,429.457,88.4,431.072Z" fill="#03a678"/>
    <path id="Path_50052" data-name="Path 50052" d="M87.486,450.449a.885.885,0,0,1,.371-.45c3.206-2.024,4.791-5.747,7.57-8.243.857-.77,2.1.515,1.246,1.287a49.259,49.259,0,0,0-4.606,5.446c2.206-.911,4.421-1.809,6.611-2.788,1.046-.468,1.931,1.091.878,1.561-6.491,2.9-12.871,5.554-19.132,8.911a37.994,37.994,0,0,0,4.07.17,42.033,42.033,0,0,0,5.276.06c1.149-.088,1.112,1.7-.03,1.791a46.807,46.807,0,0,1-6.708-.144c-1.189-.083-3.5.037-4.617-.779a76.843,76.843,0,0,1-7.136,3.693c2.514.867,4.855,2.349,7.4,3.123a.9.9,0,0,1-.5,1.719c-3.392-1.03-6.479-3.483-10.075-3.7a15.246,15.246,0,0,1-3.519.6c-1.153.044-1.119-1.747.03-1.791a12.684,12.684,0,0,0,1.833-.221.865.865,0,0,1,0-.21c.426-2.289,1.573-4.227,2.453-6.355,1.033-2.5,1.763-5.132,2.707-7.667.4-1.073,2.123-.579,1.719.505-.945,2.537-1.687,5.159-2.707,7.667a46.317,46.317,0,0,0-2.279,5.591,44,44,0,0,0,8.908-4.236.821.821,0,0,1,.027-.251c1.427-4.475,4.4-8.185,6.344-12.425.478-1.046,2.006-.109,1.531.93-1.628,3.561-4.036,6.738-5.543,10.347.755-.451,1.482-.883,2.163-1.272C83.631,452.248,85.546,451.319,87.486,450.449Z" fill="#35343d"/>
  </g>
</svg>
