<svg xmlns="http://www.w3.org/2000/svg" width="846.558" height="688.793" viewBox="0 0 846.558 688.793">
  <g id="Group_16217" data-name="Group 16217" transform="translate(0 -14.286)">
    <g id="Group_15066" data-name="Group 15066" transform="translate(0 14.286)">
      <g id="Group_14959" data-name="Group 14959">
        <path id="Path_29902" data-name="Path 29902" d="M76.954,2619.755c54.232,37.323,72.186,92.988,143.278,119.824,22.37,8.444,48.265,14.028,73.71,16.542,28.7,2.837,56.565,1.54,81.852,12.354,21.127,9.035,36.6,22.185,48.526,35.475,31.255,34.822,85.737,24.974,138.785,29.885,60.208,5.574,66.97,53.321,121.8,61.447,26.262,3.891,54.688-1.151,80.437,6.269,19.293,5.558,23.037,19.739,40.351,26.431,29.766,11.5,40.861,6.228,40.861,13.13s-14.073,2.187-40.861,14.478c-16.438,7.541-21.057,20.871-40.351,26.431-25.749,7.418-54.174,2.376-80.437,6.267-54.835,8.126-61.6,55.873-121.8,61.447-53.048,4.912-107.53-4.937-138.785,29.885-11.926,13.291-27.4,26.44-48.526,35.475-25.287,10.813-53.153,9.516-81.852,12.353-25.445,2.515-51.341,8.1-73.71,16.542-71.093,26.836-89.046,82.5-143.278,119.823C46.858,3284.523,0,3286.18,0,3286.18V2597.387S46.858,2599.043,76.954,2619.755Z" transform="translate(0 -2597.387)" fill="#fff"/>
      </g>
    </g>
  </g>
</svg>
