<svg xmlns="http://www.w3.org/2000/svg" width="36.59" height="36.353" viewBox="0 0 36.59 36.353">
  <g id="Group_16232" data-name="Group 16232" transform="translate(-391.757 -25.372)">
    <path id="Path_50057" data-name="Path 50057" d="M427,39.9c3.3-2.387-.22-3.99-2.657-4.148-2.538-.164-5.348.523-7.78.113-.2-1.83,5.239-8.3,2.294-9.479-1.376-.55-4.154,1.85-5.012,2.7-1.22,1.206-1.728,3.463-3.212,4.289-1.466-1.537-3.12-9.421-6.685-7.772-1.991.921-1.522,8.7-.539,9.073l.36.179a51.635,51.635,0,0,1-5.175,0c-1.307-.134-4.16-1.1-5.174.085-2.295,2.69,5.084,7.416,6.478,8.672-.893,1.472-11.441,5.613-7.1,7.072,1.351.453,3.753-.033,5.105-.174,1.794-.189,3.98-1.716,5.66-1.436.33,3.509-2.243,6.965-2.64,10.543A1.367,1.367,0,0,0,402.9,61c2.15-1.055,3.787-4.477,4.82-5.979,1.17-1.7,1.688-1.4,2.706.1,1,1.472,1.907,2.945,2.974,4.373.689.922,1.35,2.576,2.829,2.158,1.158-.328,1.5-2.361,1.578-3.407.127-1.642-1.316-5.653.269-6.674,1.632-1.052,5.607.956,7.315,1.037,3.752.176,1.705-2.958.5-4.678a10.063,10.063,0,0,0-3.056-3.017c-1.1-.714-2.788-1.084-1.89-2.429C421.926,41.013,425.514,40.972,427,39.9Z" fill="#cf63bd"/>
    <path id="Path_50058" data-name="Path 50058" d="M414.522,40.5a5.365,5.365,0,0,0-5.785-1.312c-2.022.836-2.631,2.2-2.371,3.793a4.662,4.662,0,0,0-.108,1.266c.177,3.286,4.206,5.016,6.916,3.439C415.427,46.372,416.431,42.516,414.522,40.5Z" fill="#0455bf"/>
  </g>
</svg>
