<svg xmlns="http://www.w3.org/2000/svg" width="43.552" height="47.638" viewBox="0 0 43.552 47.638">
  <g id="Group_16231" data-name="Group 16231" transform="translate(-580.648 -236.218)">
    <g id="Group_15037" data-name="Group 15037">
      <path id="Path_50105" data-name="Path 50105" d="M610.12,238.936c-1.135,1.177-16.247,19.639-16.247,19.639l5.807,5.522,22.945-27.72C619.514,235.608,611.2,237.817,610.12,238.936Z" fill="#f2b705"/>
      <path id="Path_50106" data-name="Path 50106" d="M622.844,249.019s2.543-9.979.665-12.169l-23.116,27.926,4.122,3.92Z" fill="#f2b705"/>
      <path id="Path_50107" data-name="Path 50107" d="M594.1,270.835a.492.492,0,0,0,.065.692.549.549,0,0,0,.1.065.494.494,0,0,0,.59-.13l5.533-6.686-.713-.679Z" fill="#35343d"/>
      <path id="Path_50108" data-name="Path 50108" d="M623.077,236.522a2.965,2.965,0,0,0-.452-.145L599.68,264.1l.713.679,23.116-27.926A1.206,1.206,0,0,0,623.077,236.522Z" fill="#f2b705"/>
    </g>
    <path id="Path_50109" data-name="Path 50109" d="M595.852,277.781c.43-.435.846-.865,1.242-1.282l.338-.358c.347-.369.759-.828,1.2-1.328-4.536-1.967-9.094-3.939-13.635-5.964-1.836,2.436-3.786,5.366-4.215,7.318-.982,4.459,3.724,8.768,7.678,7.446,1.852-.619,4.623-3.061,7.047-5.482C595.622,278.014,595.737,277.9,595.852,277.781Z" fill="#0455bf"/>
    <path id="Path_50110" data-name="Path 50110" d="M602.851,269.811l-10.543-10.478s-4.534,6.016-5.566,7.285l-.309.383c-.348.434-.72.906-1.1,1.406l-.3.392-.036.05c4.541,2.025,9.1,4,13.635,5.964C600.494,272.688,602.851,269.811,602.851,269.811Z" fill="#0455bf"/>
    <path id="Rectangle_49526" data-name="Rectangle 49526" d="M3.634,0H25.018a3.634,3.634,0,0,1,3.634,3.634V5.571a3.635,3.635,0,0,1-3.635,3.635H3.634A3.634,3.634,0,0,1,0,5.572V3.634A3.634,3.634,0,0,1,3.634,0Z" transform="matrix(0.752, 0.659, -0.659, 0.752, 591.112, 250.969)" fill="#0455bf"/>
  </g>
</svg>
