<svg xmlns="http://www.w3.org/2000/svg" width="81.145" height="49.108" viewBox="0 0 81.145 49.108">
  <g id="Group_16230" data-name="Group 16230" transform="translate(-646.022 -258.612)">
    <path id="Path_50129" data-name="Path 50129" d="M666.647,284.434s-4.185.61-5.633-2.209-1.969-5.78-1.274-6.419,7.006-.969,8.4.087a5.452,5.452,0,0,1,1.694,3.2S667.756,282.467,666.647,284.434Z" fill="#cf3a3a"/>
    <path id="Path_50130" data-name="Path 50130" d="M673.229,275.032s-4.575-.238-5.146-2.729-.333-5.852.2-6.906,4.921.185,6.905.782,2.129,5.9,2.129,5.9A14.336,14.336,0,0,0,673.229,275.032Z" fill="#cf3a3a"/>
    <path id="Path_50131" data-name="Path 50131" d="M681.623,270.386s-3.191-4.242-3.012-5.3a21.7,21.7,0,0,1,3.921-6.356c1.051-.833,5.335,3.122,5.981,4.425s-1.181,6.738-1.445,6.994A11.772,11.772,0,0,0,681.623,270.386Z" fill="#cf3a3a"/>
    <path id="Path_50132" data-name="Path 50132" d="M692.463,271.731s-1.289-4.809-1.009-6.456,4.2-3.941,6.07-3.771,3.094,4.991,3.145,6.349-4.867,5.807-4.867,5.807Z" fill="#cf3a3a"/>
    <path id="Path_50133" data-name="Path 50133" d="M700.905,276.786s.5-3.961,1.061-4.582,3.863-1.078,4.652-.777,1.007,3.459.55,4.561-3.958,2.155-3.958,2.155Z" fill="#cf3a3a"/>
    <path id="Path_50134" data-name="Path 50134" d="M676.2,295.258s3.8,5.2,4.458,7.92,4.181,2.206,5.832,1.723,3.253-.953,3.2-2.512-1.891-7.425-1.478-9.919" fill="#f2b705"/>
    <path id="Path_50135" data-name="Path 50135" d="M696.861,289.852s3.8,5.2,4.458,7.921,4.181,2.206,5.832,1.723,3.253-.953,3.2-2.513-1.891-7.424-1.478-9.918" fill="#f2b705"/>
    <path id="Path_50136" data-name="Path 50136" d="M672.961,299.927c.666-.168,1.032-.3,1.032-.3a48.927,48.927,0,0,1,10.312-2.073c.182-.894.422-1.776.679-2.655A43.446,43.446,0,0,0,672.961,299.927Z" fill="#cf3a3a"/>
    <path id="Path_50137" data-name="Path 50137" d="M687.6,294.266c-.228.991-.443,1.983-.64,2.968.96-.116,1.943-.237,2.937-.365.2-1.085.443-2.145.687-3.2C689.581,293.848,688.585,294.046,687.6,294.266Z" fill="#cf3a3a"/>
    <path id="Path_50138" data-name="Path 50138" d="M690.583,293.664c-.244,1.06-.485,2.12-.687,3.2q1.187-.153,2.4-.331c.156-1.091.347-2.178.558-3.262Q691.714,293.458,690.583,293.664Z" fill="#cf3a3a"/>
    <path id="Path_50139" data-name="Path 50139" d="M692.856,293.276c-.211,1.084-.4,2.171-.558,3.262a76.641,76.641,0,0,0,10.187-2.1q.624-.178,1.205-.367c.1-.733.213-1.458.325-2.18C700.284,292.282,696.534,292.689,692.856,293.276Z" fill="#cf3a3a"/>
    <path id="Path_50140" data-name="Path 50140" d="M704.015,291.891c-.112.722-.223,1.447-.325,2.18.783-.253,1.505-.519,2.182-.8q.042-.795.085-1.588Z" fill="#cf3a3a"/>
    <path id="Path_50141" data-name="Path 50141" d="M705.957,291.688q-.043.792-.085,1.588a21.638,21.638,0,0,0,3.844-1.994C708.47,291.423,707.214,291.555,705.957,291.688Z" fill="#cf3a3a"/>
    <path id="Path_50142" data-name="Path 50142" d="M684.984,294.9c-.257.879-.5,1.761-.679,2.655.866-.107,1.753-.213,2.654-.321.2-.985.412-1.977.64-2.968C686.72,294.462,685.847,294.671,684.984,294.9Z" fill="#cf3a3a"/>
    <path id="Path_50143" data-name="Path 50143" d="M715.693,260.322c-4.055,1.061-7.5,3.925-7.014,9.28s4.133,7.65-.155,9.889-16-11.857-26.473-9.217-13.294,10.89-17.2,17.293-14.738,3.044-17.011,2.116-4.345,3.573,6.547,8.338a29.243,29.243,0,0,0,18.577,1.906c10.512-6.594,24.031-7.207,36.755-8.645,4.467-2.981,5.361-6.61,6.432-9.556,1.5-4.114,1.26-3.984,2.253-4.583s8.073.325,8.728-8.036S719.747,259.261,715.693,260.322Z" fill="#f2b705"/>
    <path id="Path_50144" data-name="Path 50144" d="M671.558,297.691s3.8,5.2,4.458,7.92,4.181,2.206,5.832,1.723,3.253-.952,3.2-2.512-1.891-7.425-1.478-9.919" fill="#f2b705"/>
    <path id="Path_50145" data-name="Path 50145" d="M692.218,292.285s3.8,5.2,4.458,7.921,4.181,2.206,5.832,1.723,3.253-.953,3.2-2.513-1.891-7.424-1.478-9.918" fill="#f2b705"/>
    <path id="Path_50146" data-name="Path 50146" d="M682.173,274.419c.165.629-.9,1.455-2.389,1.843s-2.821.193-2.985-.437.9-1.455,2.388-1.843S682.008,273.789,682.173,274.419Z" fill="#cf3a3a"/>
    <path id="Path_50147" data-name="Path 50147" d="M690.636,273.423c.165.63-.9,1.455-2.389,1.843s-2.82.193-2.985-.437.9-1.455,2.389-1.843S690.471,272.793,690.636,273.423Z" fill="#cf3a3a"/>
    <path id="Path_50148" data-name="Path 50148" d="M677.687,279.486c.114.437-.628,1.009-1.657,1.279s-1.956.133-2.07-.3.627-1.009,1.656-1.278S677.572,279.049,677.687,279.486Z" fill="#cf3a3a"/>
    <path id="Path_50149" data-name="Path 50149" d="M681.115,281.352c.115.437-.467.967-1.3,1.185s-1.6.04-1.713-.4.468-.967,1.3-1.185S681,280.916,681.115,281.352Z" fill="#cf3a3a"/>
    <path id="Path_50150" data-name="Path 50150" d="M684.306,277.754c.114.437-.467.968-1.3,1.185s-1.6.04-1.713-.4.467-.967,1.3-1.185S684.191,277.317,684.306,277.754Z" fill="#cf3a3a"/>
    <path id="Path_50151" data-name="Path 50151" d="M691.463,276.643c.146.558-.671,1.256-1.825,1.558s-2.207.093-2.354-.465.672-1.255,1.825-1.557S691.317,276.084,691.463,276.643Z" fill="#cf3a3a"/>
    <path id="Path_50152" data-name="Path 50152" d="M723.329,272.615a1.943,1.943,0,1,1-1.943-1.943A1.943,1.943,0,0,1,723.329,272.615Z" fill="#cf63bd"/>
    <circle id="Ellipse_3419" data-name="Ellipse 3419" cx="0.759" cy="0.759" r="0.759" transform="translate(722.811 269.154)" fill="#35343d"/>
  </g>
</svg>
