<svg xmlns="http://www.w3.org/2000/svg" width="108.594" height="80.697" viewBox="0 0 108.594 80.697">
  <path id="Path_66725" data-name="Path 66725" d="M204.619,47.48c-1.836,6.734-1.324,14.364-4.282,20.79-4.7,10.2-11.386-6.211-15.051-9.513-4.353-3.921-11.314-8.231-16.107-3.713-4.778,4.5-5.3,13.047-6.657,19.1-1.01,4.515-2.405,15.83-8.389,16.782-6.222.99-11.368-10.561-18.089-6.627-5.4,3.16-7.88,14.584-8.14,20.236-.218,4.778.546,16.951,7.7,16.619a8.442,8.442,0,0,0,4.2-2.082,5.591,5.591,0,0,0,1.6-1.876c2.676-4.916-2.9-16.873,4.46-18.7,7.416-1.84,10.957,9.785,17.4,11.705,7.147,2.129,11.563-6.853,11.874-13.122.207-4.166-4.36-15.281-.64-19.066,4.947-5.035,12.956,6.4,16.112,8.644,4.932,3.509,12.937,7.52,17.28,1.2,4.389-6.39,2.754-14.75,4.882-21.835.792-2.633,1.785-5.56,4.781-6.235,3.517-.793,5.287,3.188,7.544,5.39,2.422,2.363,5.027,5.094,8.452,2.843a6.6,6.6,0,0,0,2.639-7.475C233.452,50.549,209.516,29.518,204.619,47.48Z" transform="translate(-127.873 -40.465)" fill="#cf63bd"/>
</svg>
