<svg xmlns="http://www.w3.org/2000/svg" width="98.163" height="77.963" viewBox="0 0 98.163 77.963">
  <g id="Group_15053" data-name="Group 15053" transform="translate(-82.624 -182.113)">
    <path id="Path_50121" data-name="Path 50121" d="M124.873,202.81s-16.212-7.51-23.023.529-7.459,9.534-6.518,12.125c1.228,3.4,15.188,2.008,15.188,2.008Z" fill="#03a678"/>
    <path id="Path_50122" data-name="Path 50122" d="M143.682,230.189s2.4,17.706-7.288,21.849-11.307,4.317-13.51,2.657c-2.882-2.176,2.557-15.1,2.557-15.1Z" fill="#03a678"/>
    <path id="Path_50123" data-name="Path 50123" d="M171.824,207.631c5.8-6.757,11.59-16.275,7.694-21.561-4.845-6.565-15.966-3.691-24.819-.459A71.027,71.027,0,0,0,171.824,207.631Z" fill="#cf3a3a"/>
    <path id="Path_50124" data-name="Path 50124" d="M107.815,219.271s-20.172,5.6-21.306,13.919,8.612,5.534,8.612,5.534-16.383,7.408-11.633,15.787,15.74-2.577,15.74-2.577-1.018,2.377,1.976,6.668c5.307,7.609,22.385-16.727,22.385-16.727Z" fill="#cf3a3a"/>
    <path id="Path_50125" data-name="Path 50125" d="M110.419,223.005s-13.85,3.845-14.63,9.557,5.913,3.8,5.913,3.8-11.249,5.086-7.989,10.841,10.81-1.768,10.81-1.768-.7,1.631,1.355,4.576c3.647,5.225,15.371-11.484,15.371-11.484Z" fill="#f2b705"/>
    <path id="Path_50126" data-name="Path 50126" d="M154.7,185.611c-38.537,17.49-46.885,33.66-46.885,33.66,1.77,14.108,15.774,22.6,15.774,22.6-1.022.713,17.958-.233,48.235-34.244A71.009,71.009,0,0,1,154.7,185.611Z" fill="#0455bf"/>
    <g id="Group_15052" data-name="Group 15052">
      <path id="Path_50127" data-name="Path 50127" d="M146.068,224.417c-4.622,3.229-12.345,2.9-15.929-2.244s-3.926-12.423,1.9-16.484a11.255,11.255,0,0,1,15.376,2.83C151.006,213.656,150.688,221.192,146.068,224.417Z" fill="#03a678"/>
      <path id="Path_50128" data-name="Path 50128" d="M145.8,209.775a9.066,9.066,0,0,0-7.385-3.827,8.755,8.755,0,0,0-5.126,1.527c-4.741,3.3-4.467,9.233-1.546,13.412,2.38,3.418,7.017,4.221,10.68,2.966a9.1,9.1,0,0,0,2.277-1.137C148.462,220.092,148.719,213.955,145.8,209.775Z" fill="#f2f2f2"/>
    </g>
  </g>
</svg>
