<svg xmlns="http://www.w3.org/2000/svg" width="270" height="169.599" viewBox="0 0 270 169.599">
  <g id="Group_12" data-name="Group 12" transform="translate(0 -1)">
    <path id="Path_21" data-name="Path 21" d="M288.769,187.3c-10.983-5.571-24.821-5.894-37.118-7.84C240.2,177.646,219.339,169.69,211,161.072c-14.413-14.894-13.543-47.419,8.232-57.81,24.983-11.924,56.374-.98,83.444,2.559,41.777,5.463,50.767-26.659,91.4-32.185,15.541-2.113,37.721,2.524,45.328,18.279,9.656,20-3.153,42.975,11.336,61.946,5.415,7.091,40.486,36.944,4.689,48.7-12.811,4.207-25.955,6.937-39.05,10.054-12.6,3-24.857,6.585-36.169,12.958-15.1,8.506-31.714,21.195-49.1,12.623C308.741,227.167,309.172,197.649,288.769,187.3Z" transform="translate(-201.327 -72.155)" fill="#fae106"/>
    <g id="Group_7" data-name="Group 7" transform="translate(19.221 129.451)">
      <path id="Path_23" data-name="Path 23" d="M217.256,214.742a.987.987,0,0,1-.7-1.685l39.172-39.174a.987.987,0,1,1,1.4,1.4l-39.172,39.174A.986.986,0,0,1,217.256,214.742Z" transform="translate(-216.269 -173.595)" fill="#fff"/>
    </g>
    <g id="Group_8" data-name="Group 8" transform="translate(198.672 6.478)">
      <path id="Path_24" data-name="Path 24" d="M356.754,123.318a.988.988,0,0,1-.708-1.676c1.659-1.7,40.684-41.792,44.09-44.063a.988.988,0,0,1,1.095,1.644c-2.683,1.788-32.5,32.222-43.77,43.8A.981.981,0,0,1,356.754,123.318Z" transform="translate(-355.766 -77.414)" fill="#fff"/>
    </g>
  </g>
</svg>
