<svg xmlns="http://www.w3.org/2000/svg" width="97.022" height="56.194" viewBox="0 0 97.022 56.194">
  <path id="Path_66726" data-name="Path 66726" d="M356.823,125.913c1.2-2.329,42.938,16.174,48.521,19.438a5.993,5.993,0,0,0,5.777.442c-11.444-9.365-39.631-18.579-39.708-19.761s12.808,3.524,18.2,6.84c7.882,4.185,15.578,6.27,22.276,10.982,2.376,1.395,2.609-.222,3.277-.707,2.859-2.548,5.244-10.289,3.3-11.1s-1.4-.768-2.5-.952c-1.666-.278,2.673-2.67,1.537-3.882s-36.311-15.978-35.048-17.579,12.867,6.665,19.346,9.78c5.392,2.229,10.893,4.339,16.337,6.648.756-1.438,1.223-2.808.356-4.182-.974-2.544-7.614-2.842-10.776-4.7-8.418-5.954-18.926-8.838-27.766-13.86-6.478-3.538-13.627-5.075-20.772-6.509-9.922-1.577-19.673-7.131-28.272-6.613-7.711.759-4.228,13.393-1.471,15.781s1.115,2.365-.713,2.622-6.7,3.978-6.565,7.389,51.5,16.546,70.015,24.434c-11.743-5.55-21.317-9.8-33.9-13C357.564,127.3,356.246,127.029,356.823,125.913Z" transform="translate(-322.151 -90.157)" fill="#f2b705"/>
</svg>
